# xmcd CD database file
#
# Track frame offsets:
#	150
#	17875
#	36052
#	53868
#	73075
#	91473
#	110151
#	131651
#	146543
#
# Disc length: 2256 seconds
#
# Revision: 0
# Processed by: cddbd v1.5.2PL0 Copyright (c) Steve Scherf et al.
# Submitted via: CDex 1.70beta2
#
DISCID=8308ce09
DTITLE=Jack On Fire - Stranger Cain
DYEAR=2009
DGENRE=Country
TTITLE0=The Last Waltz of Josephine K
TTITLE1=Guns Out Jonny
TTITLE2=The Money or the Myrrh
TTITLE3=Mountain
TTITLE4=The Begin
TTITLE5=Dying for Dixie
TTITLE6=Honeymoon
TTITLE7=Not For You
TTITLE8=Oh Brother
EXTD=YEAR: 2009
EXTT0=
EXTT1=
EXTT2=
EXTT3=
EXTT4=
EXTT5=
EXTT6=
EXTT7=
EXTT8=
PLAYORDER=
